<svg xmlns="http://www.w3.org/2000/svg" viewBox="0 0 640 240" font-family="Menlo, Consolas, monospace"><defs><marker id="escrow-presigned-outcomes-arrow" viewBox="0 0 10 10" refX="9" refY="5" markerWidth="7" markerHeight="7" orient="auto-start-reverse"><path d="M0,0 L10,5 L0,10 z" fill="#1b1a16"/></marker><marker id="escrow-presigned-outcomes-arrow-bronze" viewBox="0 0 10 10" refX="9" refY="5" markerWidth="7" markerHeight="7" orient="auto-start-reverse"><path d="M0,0 L10,5 L0,10 z" fill="#825f27"/></marker></defs><rect x="30" y="88" width="160" height="44" fill="none" stroke="#1b1a16" stroke-width="1.4" rx="2"/><text x="110" y="108" font-size="13" fill="#1b1a16" text-anchor="middle">2 of 2 escrow</text><text x="110" y="124" font-size="12" fill="#726c60" text-anchor="middle">price + both deposits</text><line x1="192" y1="110" x2="447" y2="45" stroke="#1b1a16" stroke-width="1.4" marker-end="url(#escrow-presigned-outcomes-arrow)"/><line x1="192" y1="110" x2="447" y2="110" stroke="#1b1a16" stroke-width="1.4" marker-end="url(#escrow-presigned-outcomes-arrow)"/><line x1="192" y1="110" x2="447" y2="175" stroke="#1b1a16" stroke-width="1.4" marker-end="url(#escrow-presigned-outcomes-arrow)"/><rect x="450" y="30" width="155" height="30" fill="none" stroke="#1b1a16" stroke-width="1.4" rx="2" stroke-dasharray="5 3"/><text x="527" y="49" font-size="13" fill="#1b1a16" text-anchor="middle">buyer paid</text><rect x="450" y="95" width="155" height="30" fill="none" stroke="#1b1a16" stroke-width="1.4" rx="2" stroke-dasharray="5 3"/><text x="527" y="114" font-size="13" fill="#1b1a16" text-anchor="middle">seller paid</text><rect x="450" y="160" width="155" height="30" fill="none" stroke="#1b1a16" stroke-width="1.4" rx="2" stroke-dasharray="5 3"/><text x="527" y="179" font-size="13" fill="#1b1a16" text-anchor="middle">funds returned</text><rect x="45" y="200" width="105" height="28" fill="none" stroke="#1b1a16" stroke-width="1.4" rx="2"/><text x="97" y="218" font-size="13" fill="#1b1a16" text-anchor="middle">quorum</text><text x="162" y="218" font-size="12" fill="#726c60" text-anchor="start">holds no key</text><line x1="120" y1="200" x2="320" y2="120" stroke="#825f27" stroke-width="1.4" marker-end="url(#escrow-presigned-outcomes-arrow-bronze)"/><text x="250" y="184" font-size="12" fill="#825f27" text-anchor="middle">one signature</text></svg>